<svg xmlns="http://www.w3.org/2000/svg" width="24" height="24" viewBox="0 0 512 512"><path fill="#fff" d="M504 496h-24v-48c0-4-4-8-8-8h-40V272c0-85-60-156-140-172L280 8h-32c-4 0-8 3-8 7l-9 69c-1 4 3 8 7 9s8-3 9-7l8-62h18l11 81c-130-5-220 77-220 182v168H24v48H8c-4 0-8 4-8 8s4 8 8 8h496c4 0 8-4 8-8s-4-8-8-8zM222 223c-21 21-16 21-37 0-3-3-3-8 0-11l13-14c3-3 8-3 11 0l13 14c3 3 3 8 0 11zm52 92c-21 21-16 21-37 0-3-3-3-8 0-11l13-14c3-3 8-3 11 0l13 14c3 3 3 8 0 11zm51-92c-21 21-16 21-37 0-3-3-3-8 0-11l13-14c3-3 8-3 11 0l13 14c3 3 3 8 0 11zm11 81c21-21 16-21 37 0 3 3 3 8 0 11l-13 14c-3 3-8 3-11 0l-13-14c-3-3-3-8 0-11zm-160 11c-21 21-16 21-37 0-3-3-3-8 0-11l13-14c3-3 8-3 11 0l13 14c3 3 3 8 0 11zm-80 81h320v44H96z"/></svg>